<svg width="1160" height="121" viewBox="0 0 1160 121" fill="none" xmlns="http://www.w3.org/2000/svg">
<circle cx="2.5" cy="5.5" r="2.5" fill="#40464D"/>
<circle cx="57.5" cy="5.5" r="2.5" fill="#40464D"/>
<circle cx="112.5" cy="5.5" r="2.5" fill="#40464D"/>
<circle cx="167.5" cy="5.5" r="2.5" fill="#40464D"/>
<circle cx="222.5" cy="5.5" r="2.5" fill="#40464D"/>
<circle cx="277.5" cy="5.5" r="2.5" fill="#40464D"/>
<circle cx="332.5" cy="5.5" r="2.5" fill="#40464D"/>
<circle cx="387.5" cy="5.5" r="2.5" fill="#40464D"/>
<circle cx="442.5" cy="5.5" r="2.5" fill="#40464D"/>
<circle cx="497.5" cy="5.5" r="2.5" fill="#40464D"/>
<circle cx="552.5" cy="5.5" r="2.5" fill="#40464D"/>
<circle cx="607.5" cy="5.5" r="2.5" fill="#40464D"/>
<circle cx="662.5" cy="5.5" r="2.5" fill="#40464D"/>
<circle cx="717.5" cy="5.5" r="2.5" fill="#40464D"/>
<circle cx="772.5" cy="5.5" r="2.5" fill="#40464D"/>
<circle cx="827.5" cy="5.5" r="2.5" fill="#40464D"/>
<circle cx="882.5" cy="5.5" r="2.5" fill="#40464D"/>
<circle cx="937.5" cy="5.5" r="2.5" fill="#40464D"/>
<circle cx="992.5" cy="5.5" r="2.5" fill="#40464D"/>
<circle cx="1047.5" cy="5.5" r="2.5" fill="#40464D"/>
<circle cx="1102.5" cy="5.5" r="2.5" fill="#40464D"/>
<circle cx="1157.5" cy="5.5" r="2.5" fill="#40464D"/>
<circle cx="2.5" cy="60.5" r="2.5" fill="#40464D"/>
<circle cx="57.5" cy="60.5" r="2.5" fill="#40464D"/>
<circle cx="112.5" cy="60.5" r="2.5" fill="#40464D"/>
<circle cx="167.5" cy="60.5" r="2.5" fill="#40464D"/>
<circle cx="222.5" cy="60.5" r="2.5" fill="#40464D"/>
<circle cx="277.5" cy="60.5" r="2.5" fill="#40464D"/>
<circle cx="332.5" cy="60.5" r="2.5" fill="#40464D"/>
<circle cx="387.5" cy="60.5" r="2.5" fill="#40464D"/>
<circle cx="442.5" cy="60.5" r="2.5" fill="#40464D"/>
<circle cx="497.5" cy="60.5" r="2.5" fill="#40464D"/>
<circle cx="552.5" cy="60.5" r="2.5" fill="#40464D"/>
<circle cx="607.5" cy="60.5" r="2.5" fill="#40464D"/>
<circle cx="662.5" cy="60.5" r="2.5" fill="#40464D"/>
<circle cx="717.5" cy="60.5" r="2.5" fill="#40464D"/>
<circle cx="772.5" cy="60.5" r="2.5" fill="#40464D"/>
<circle cx="827.5" cy="60.5" r="2.5" fill="#40464D"/>
<circle cx="882.5" cy="60.5" r="2.5" fill="#40464D"/>
<circle cx="937.5" cy="60.5" r="2.5" fill="#40464D"/>
<circle cx="992.5" cy="60.5" r="2.5" fill="#40464D"/>
<circle cx="1047.5" cy="60.5" r="2.5" fill="#40464D"/>
<circle cx="1102.5" cy="60.5" r="2.5" fill="#40464D"/>
<circle cx="1157.5" cy="60.5" r="2.5" fill="#40464D"/>
<circle cx="2.5" cy="115.5" r="2.5" fill="#40464D"/>
<circle cx="57.5" cy="115.5" r="2.5" fill="#40464D"/>
<circle cx="112.5" cy="115.5" r="2.5" fill="#40464D"/>
<circle cx="167.5" cy="115.5" r="2.5" fill="#40464D"/>
<circle cx="222.5" cy="115.5" r="2.5" fill="#40464D"/>
<circle cx="277.5" cy="115.5" r="2.5" fill="#40464D"/>
<circle cx="332.5" cy="115.5" r="2.5" fill="#40464D"/>
<circle cx="387.5" cy="115.5" r="2.5" fill="#40464D"/>
<circle cx="442.5" cy="115.5" r="2.5" fill="#40464D"/>
<circle cx="497.5" cy="115.5" r="2.5" fill="#40464D"/>
<circle cx="552.5" cy="115.5" r="2.5" fill="#40464D"/>
<circle cx="607.5" cy="115.5" r="2.5" fill="#40464D"/>
<circle cx="662.5" cy="115.5" r="2.5" fill="#40464D"/>
<circle cx="717.5" cy="115.5" r="2.5" fill="#40464D"/>
<circle cx="772.5" cy="115.5" r="2.5" fill="#40464D"/>
<circle cx="827.5" cy="115.5" r="2.5" fill="#40464D"/>
<circle cx="882.5" cy="115.5" r="2.5" fill="#40464D"/>
<circle cx="937.5" cy="115.5" r="2.5" fill="#40464D"/>
<circle cx="992.5" cy="115.5" r="2.5" fill="#40464D"/>
<circle cx="1047.5" cy="115.5" r="2.5" fill="#40464D"/>
<circle cx="1102.5" cy="115.5" r="2.5" fill="#40464D"/>
<circle cx="1157.5" cy="115.5" r="2.5" fill="#40464D"/>
<circle cx="442.5" cy="5.5" r="5" fill="#3858E9"/>
<circle cx="662.5" cy="60.5" r="5" fill="#3858E9"/>
<circle cx="222.5" cy="60.5" r="5" fill="#3858E9"/>
<circle cx="112.5" cy="115.5" r="5" fill="#3858E9"/>
<circle cx="992.5" cy="115.5" r="5" fill="#3858E9"/>
<circle cx="1102.5" cy="60.5" r="5" fill="#3858E9"/>
<circle cx="1047.5" cy="5.5" r="5" fill="#3858E9"/>
</svg>
