<svg width="1212" height="121" fill="none" xmlns="http://www.w3.org/2000/svg">
    <circle cx="4.5" cy="5.5" r="2.5" fill="#40464D"/>
    <circle cx="59.5" cy="5.5" r="2.5" fill="#40464D"/>
    <circle cx="114.5" cy="5.5" r="2.5" fill="#40464D"/>
    <circle cx="169.5" cy="5.5" r="2.5" fill="#40464D"/>
    <circle cx="224.5" cy="5.5" r="2.5" fill="#40464D"/>
    <circle cx="279.5" cy="5.5" r="2.5" fill="#40464D"/>
    <circle cx="334.5" cy="5.5" r="2.5" fill="#40464D"/>
    <circle cx="389.5" cy="5.5" r="2.5" fill="#40464D"/>
    <circle cx="444.5" cy="5.5" r="2.5" fill="#40464D"/>
    <circle cx="499.5" cy="5.5" r="2.5" fill="#40464D"/>
    <circle cx="554.5" cy="5.5" r="2.5" fill="#40464D"/>
    <circle cx="609.5" cy="5.5" r="2.5" fill="#40464D"/>
    <circle cx="664.5" cy="5.5" r="2.5" fill="#40464D"/>
    <circle cx="719.5" cy="5.5" r="2.5" fill="#40464D"/>
    <circle cx="774.5" cy="5.5" r="2.5" fill="#40464D"/>
    <circle cx="829.5" cy="5.5" r="2.5" fill="#40464D"/>
    <circle cx="884.5" cy="5.5" r="2.5" fill="#40464D"/>
    <circle cx="939.5" cy="5.5" r="2.5" fill="#40464D"/>
    <circle cx="994.5" cy="5.5" r="2.5" fill="#40464D"/>
    <circle cx="1049.5" cy="5.5" r="2.5" fill="#40464D"/>
    <circle cx="1104.5" cy="5.5" r="2.5" fill="#40464D"/>
    <circle cx="1159.5" cy="5.5" r="2.5" fill="#40464D"/>
    <circle cx="4.5" cy="60.5" r="2.5" fill="#40464D"/>
    <circle cx="59.5" cy="60.5" r="2.5" fill="#40464D"/>
    <circle cx="114.5" cy="60.5" r="2.5" fill="#40464D"/>
    <circle cx="169.5" cy="60.5" r="2.5" fill="#40464D"/>
    <circle cx="224.5" cy="60.5" r="2.5" fill="#40464D"/>
    <circle cx="279.5" cy="60.5" r="2.5" fill="#40464D"/>
    <circle cx="334.5" cy="60.5" r="2.5" fill="#40464D"/>
    <circle cx="389.5" cy="60.5" r="2.5" fill="#40464D"/>
    <circle cx="444.5" cy="60.5" r="2.5" fill="#40464D"/>
    <circle cx="499.5" cy="60.5" r="2.5" fill="#40464D"/>
    <circle cx="554.5" cy="60.5" r="2.5" fill="#40464D"/>
    <circle cx="609.5" cy="60.5" r="2.5" fill="#40464D"/>
    <circle cx="664.5" cy="60.5" r="2.5" fill="#40464D"/>
    <circle cx="719.5" cy="60.5" r="2.5" fill="#40464D"/>
    <circle cx="774.5" cy="60.5" r="2.5" fill="#40464D"/>
    <circle cx="829.5" cy="60.5" r="2.5" fill="#40464D"/>
    <circle cx="884.5" cy="60.5" r="2.5" fill="#40464D"/>
    <circle cx="939.5" cy="60.5" r="2.5" fill="#40464D"/>
    <circle cx="994.5" cy="60.5" r="2.5" fill="#40464D"/>
    <circle cx="1049.5" cy="60.5" r="2.5" fill="#40464D"/>
    <circle cx="1104.5" cy="60.5" r="2.5" fill="#40464D"/>
    <circle cx="1159.5" cy="60.5" r="2.5" fill="#40464D"/>
    <circle cx="4.5" cy="115.5" r="2.5" fill="#40464D"/>
    <circle cx="59.5" cy="115.5" r="2.5" fill="#40464D"/>
    <circle cx="114.5" cy="115.5" r="2.5" fill="#40464D"/>
    <circle cx="169.5" cy="115.5" r="2.5" fill="#40464D"/>
    <circle cx="224.5" cy="115.5" r="2.5" fill="#40464D"/>
    <circle cx="279.5" cy="115.5" r="2.5" fill="#40464D"/>
    <circle cx="334.5" cy="115.5" r="2.5" fill="#40464D"/>
    <circle cx="389.5" cy="115.5" r="2.5" fill="#40464D"/>
    <circle cx="444.5" cy="115.5" r="2.5" fill="#40464D"/>
    <circle cx="499.5" cy="115.5" r="2.5" fill="#40464D"/>
    <circle cx="554.5" cy="115.5" r="2.5" fill="#40464D"/>
    <circle cx="609.5" cy="115.5" r="2.5" fill="#40464D"/>
    <circle cx="664.5" cy="115.5" r="2.5" fill="#40464D"/>
    <circle cx="719.5" cy="115.5" r="2.5" fill="#40464D"/>
    <circle cx="774.5" cy="115.5" r="2.5" fill="#40464D"/>
    <circle cx="829.5" cy="115.5" r="2.5" fill="#40464D"/>
    <circle cx="884.5" cy="115.5" r="2.5" fill="#40464D"/>
    <circle cx="939.5" cy="115.5" r="2.5" fill="#40464D"/>
    <circle cx="994.5" cy="115.5" r="2.5" fill="#40464D"/>
    <circle cx="1049.5" cy="115.5" r="2.5" fill="#40464D"/>
    <circle cx="1104.5" cy="115.5" r="2.5" fill="#40464D"/>
    <circle cx="1159.5" cy="115.5" r="2.5" fill="#40464D"/>
    <circle cx="444.5" cy="5.5" r="5" fill="#3858E9"/>
    <circle cx="664.5" cy="60.5" r="5" fill="#3858E9"/>
    <circle cx="224.5" cy="60.5" r="5" fill="#3858E9"/>
    <circle cx="114.5" cy="115.5" r="5" fill="#3858E9"/>
    <circle cx="994.5" cy="115.5" r="5" fill="#3858E9"/>
    <circle cx="1104.5" cy="60.5" r="5" fill="#3858E9"/>
    <circle cx="1049.5" cy="5.5" r="5" fill="#3858E9"/>
</svg>