<svg width="1160" height="60" viewBox="0 0 1160 60" fill="none" xmlns="http://www.w3.org/2000/svg">
<circle cx="2.5" cy="2.5" r="2.5" fill="#D9D9D9"/>
<circle cx="57.5" cy="2.5" r="2.5" fill="#1E1E1E"/>
<circle cx="112.5" cy="2.5" r="2.5" fill="#D9D9D9"/>
<circle cx="167.5" cy="2.5" r="2.5" fill="#D9D9D9"/>
<circle cx="222.5" cy="2.5" r="2.5" fill="#D9D9D9"/>
<circle cx="277.5" cy="2.5" r="2.5" fill="#D9D9D9"/>
<circle cx="332.5" cy="2.5" r="2.5" fill="#D9D9D9"/>
<circle cx="387.5" cy="2.5" r="2.5" fill="#D9D9D9"/>
<circle cx="442.5" cy="2.5" r="2.5" fill="#D9D9D9"/>
<circle cx="497.5" cy="2.5" r="2.5" fill="#1E1E1E"/>
<circle cx="552.5" cy="2.5" r="2.5" fill="#D9D9D9"/>
<circle cx="607.5" cy="2.5" r="2.5" fill="#D9D9D9"/>
<circle cx="662.5" cy="2.5" r="2.5" fill="#D9D9D9"/>
<circle cx="717.5" cy="2.5" r="2.5" fill="#D9D9D9"/>
<circle cx="772.5" cy="2.5" r="2.5" fill="#1E1E1E"/>
<circle cx="827.5" cy="2.5" r="2.5" fill="#D9D9D9"/>
<circle cx="882.5" cy="2.5" r="2.5" fill="#D9D9D9"/>
<circle cx="937.5" cy="2.5" r="2.5" fill="#D9D9D9"/>
<circle cx="992.5" cy="2.5" r="2.5" fill="#D9D9D9"/>
<circle cx="1047.5" cy="2.5" r="2.5" fill="#D9D9D9"/>
<circle cx="1102.5" cy="2.5" r="2.5" fill="#D9D9D9"/>
<circle cx="2.5" cy="57.5" r="2.5" fill="#D9D9D9"/>
<circle cx="57.5" cy="57.5" r="2.5" fill="#D9D9D9"/>
<circle cx="112.5" cy="57.5" r="2.5" fill="#D9D9D9"/>
<circle cx="167.5" cy="57.5" r="2.5" fill="#D9D9D9"/>
<circle cx="222.5" cy="57.5" r="2.5" fill="#1E1E1E"/>
<circle cx="277.5" cy="57.5" r="2.5" fill="#D9D9D9"/>
<circle cx="332.5" cy="57.5" r="2.5" fill="#D9D9D9"/>
<circle cx="387.5" cy="57.5" r="2.5" fill="#D9D9D9"/>
<circle cx="442.5" cy="57.5" r="2.5" fill="#D9D9D9"/>
<circle cx="497.5" cy="57.5" r="2.5" fill="#D9D9D9"/>
<circle cx="552.5" cy="57.5" r="2.5" fill="#D9D9D9"/>
<circle cx="607.5" cy="57.5" r="2.5" fill="#D9D9D9"/>
<circle cx="662.5" cy="57.5" r="2.5" fill="#D9D9D9"/>
<circle cx="717.5" cy="57.5" r="2.5" fill="#D9D9D9"/>
<circle cx="772.5" cy="57.5" r="2.5" fill="#D9D9D9"/>
<circle cx="827.5" cy="57.5" r="2.5" fill="#D9D9D9"/>
<circle cx="882.5" cy="57.5" r="2.5" fill="#1E1E1E"/>
<circle cx="937.5" cy="57.5" r="2.5" fill="#1E1E1E"/>
<circle cx="992.5" cy="57.5" r="2.5" fill="#D9D9D9"/>
<circle cx="1047.5" cy="57.5" r="2.5" fill="#D9D9D9"/>
<circle cx="1102.5" cy="57.5" r="2.5" fill="#1E1E1E"/>
</svg>
