<svg xmlns="http://www.w3.org/2000/svg" width="1157" height="732" fill="none" viewBox="0 -10 1157 732">
  <style>circle { fill: #40464D; }</style>
  <circle cx="39" cy="34" r="2.5"/>
  <circle cx="122" cy="34" r="2.5"/>
  <circle cx="205" cy="34" r="2.5"/>
  <circle cx="288" cy="34" r="2.5"/>
  <circle cx="371" cy="34" r="2.5"/>
  <circle cx="454" cy="34" r="2.5"/>
  <circle cx="537" cy="34" r="2.5"/>
  <circle cx="620" cy="34" r="2.5"/>
  <circle cx="703" cy="34" r="2.5"/>
  <circle cx="786" cy="34" r="2.5"/>
  <circle cx="869" cy="34" r="2.5"/>
  <circle cx="952" cy="34" r="2.5"/>
  <circle cx="1035" cy="34" r="2.5"/>
  <circle cx="1118" cy="34" r="2.5"/>
  <circle cx="39" cy="117" r="2.5"/>
  <circle cx="1118" cy="117" r="2.5"/>
  <circle cx="39" cy="200" r="2.5"/>
  <circle cx="1118" cy="200" r="2.5"/>
  <circle cx="39" cy="283" r="2.5"/>
  <circle cx="1118" cy="283" r="2.5"/>
  <circle cx="39" cy="366" r="2.5"/>
  <circle cx="1118" cy="366" r="2.5"/>
  <circle cx="39" cy="449" r="2.5"/>
  <circle cx="1118" cy="449" r="2.5"/>
  <circle cx="39" cy="532" r="2.5"/>
  <circle cx="1118" cy="532" r="2.5"/>
  <circle cx="39" cy="615" r="2.5"/>
  <circle cx="1118" cy="615" r="2.5"/>
  <circle cx="39" cy="698" r="2.5"/>
  <circle cx="1118" cy="698" r="2.5"/>
</svg>
