<?xml version="1.0" encoding="utf-8"?>
<svg width="1082" height="230" viewBox="0 0 1082 230" fill="none" xmlns="http://www.w3.org/2000/svg">
<path d="M63.6529 229.03C49.8793 229.03 38.4013 226.551 29.2189 221.592C20.0365 216.45 13.0579 208.829 8.28304 198.728C3.69184 188.444 1.02894 175.405 0.29435 159.611L39.4114 153C39.7787 162.182 40.6969 169.896 42.1661 176.14C43.8189 182.2 46.2063 186.791 49.3284 189.913C52.634 192.852 56.6743 194.321 61.4491 194.321C67.3259 194.321 71.2743 192.484 73.2944 188.811C75.4982 185.138 76.6001 180.914 76.6001 176.14C76.6001 166.774 74.3045 158.968 69.7133 152.724C65.3057 146.297 59.429 139.869 52.0831 133.441L28.9434 113.332C20.6793 106.353 13.8843 98.4565 8.55851 89.6414C3.41637 80.8263 0.845294 69.991 0.845294 57.1357C0.845294 38.7709 6.17109 24.7218 16.8227 14.9885C27.6579 5.07148 42.4416 0.112983 61.1737 0.112983C72.3762 0.112983 81.5586 1.94947 88.7209 5.62243C95.8831 9.29539 101.393 14.2539 105.249 20.4979C109.289 26.5583 112.044 33.2614 113.513 40.6074C115.166 47.7696 116.176 54.9319 116.544 62.0942L77.702 67.8791C77.3347 61.0841 76.6919 55.1156 75.7737 49.9734C75.0391 44.8313 73.3862 40.791 70.8152 37.8526C68.4278 34.9143 64.7548 33.4451 59.7963 33.4451C54.4705 33.4451 50.5221 35.4652 47.951 39.5055C45.3799 43.3621 44.0944 47.6778 44.0944 52.4527C44.0944 60.3495 45.839 66.869 49.3284 72.0112C53.0013 76.9697 57.9598 82.2036 64.2038 87.7131L86.7925 107.547C96.1586 115.628 104.147 124.902 110.759 135.37C117.554 145.654 120.951 158.418 120.951 173.66C120.951 184.128 118.564 193.586 113.789 202.034C109.014 210.482 102.311 217.093 93.6793 221.868C85.2315 226.643 75.2227 229.03 63.6529 229.03ZM128.907 226L128.907 2.8677L174.36 2.8677L174.36 94.5999L213.753 94.5999L213.753 2.8677L259.206 2.8677L259.206 226L213.753 226V127.106H174.36V226H128.907ZM339.26 229.03C322.916 229.03 309.969 226.092 300.419 220.215C290.869 214.338 283.982 205.982 279.758 195.147C275.718 184.128 273.698 170.997 273.698 155.755L273.698 72.5621C273.698 57.3193 275.718 44.2803 279.758 33.4451C283.982 22.6099 290.869 14.3457 300.419 8.65262C309.969 2.95953 322.916 0.112983 339.26 0.112983C355.789 0.112983 368.828 3.05135 378.377 8.92809C388.111 14.6212 394.998 22.8853 399.038 33.7206C403.262 44.3721 405.374 57.3193 405.374 72.5621L405.374 155.755C405.374 170.997 403.262 184.128 399.038 195.147C394.998 205.982 388.111 214.338 378.377 220.215C368.828 226.092 355.789 229.03 339.26 229.03ZM339.26 196.249C345.137 196.249 349.453 194.963 352.208 192.392C354.962 189.638 356.799 186.057 357.717 181.649C358.635 177.058 359.094 172.191 359.094 167.049L359.094 61.5432C359.094 56.4011 358.635 51.6262 357.717 47.2187C356.799 42.8111 354.962 39.3218 352.208 36.7508C349.453 33.996 345.137 32.6187 339.26 32.6187C333.751 32.6187 329.619 33.996 326.864 36.7508C324.109 39.3218 322.273 42.8111 321.355 47.2187C320.437 51.6262 319.977 56.4011 319.977 61.5432L319.977 167.049C319.977 172.191 320.345 177.058 321.079 181.649C321.998 186.057 323.834 189.638 326.589 192.392C329.343 194.963 333.567 196.249 339.26 196.249ZM439.304 226L410.38 2.8677L448.946 2.8677L464.372 139.226L483.931 3.14318L514.508 3.14318L534.893 138.951L550.319 2.8677L588.334 2.8677L559.685 226H521.119L499.357 84.6829L478.697 226H439.304ZM657.801 229.03C641.272 229.03 628.142 225.908 618.408 219.664C608.859 213.42 602.155 204.789 598.299 193.77C594.442 182.567 592.514 169.62 592.514 154.928V74.7659C592.514 59.3395 594.442 46.1168 598.299 35.0979C602.155 23.8954 608.859 15.2639 618.408 9.20356C628.142 3.14317 641.272 0.112983 657.801 0.112983C673.778 0.112983 686.266 2.77588 695.265 8.10168C704.447 13.4275 710.875 20.957 714.548 30.6904C718.405 40.4237 720.333 51.7181 720.333 64.5734V83.3055H676.257V62.3696C676.257 57.2275 675.982 52.4527 675.431 48.0451C674.88 43.4539 673.319 39.781 670.748 37.0262C668.36 34.0879 664.137 32.6187 658.076 32.6187C652.016 32.6187 647.608 34.0879 644.854 37.0262C642.099 39.9646 640.354 43.8212 639.62 48.596C638.885 53.1873 638.518 58.3294 638.518 64.0225V165.396C638.518 171.64 638.977 177.15 639.895 181.924C640.997 186.516 642.925 190.097 645.68 192.668C648.618 195.055 652.75 196.249 658.076 196.249C663.953 196.249 668.085 194.872 670.472 192.117C673.044 189.179 674.605 185.322 675.155 180.547C675.89 175.772 676.257 170.722 676.257 165.396V143.634H720.333V162.091C720.333 175.13 718.496 186.699 714.823 196.8C711.15 206.717 704.815 214.614 695.816 220.491C686.817 226.184 674.145 229.03 657.801 229.03ZM720.535 226L763.784 2.8677L814.196 2.8677L857.169 226H815.022L807.033 176.966L771.773 176.966L763.233 226H720.535ZM775.905 149.143L802.626 149.143L789.128 59.064L775.905 149.143ZM919.488 229.03C905.715 229.03 894.237 226.551 885.054 221.592C875.872 216.45 868.893 208.829 864.118 198.728C859.527 188.444 856.864 175.405 856.13 159.611L895.247 153C895.614 162.182 896.532 169.896 898.001 176.14C899.654 182.2 902.042 186.791 905.164 189.913C908.469 192.852 912.51 194.321 917.285 194.321C923.161 194.321 927.11 192.484 929.13 188.811C931.334 185.138 932.435 180.914 932.435 176.14C932.435 166.774 930.14 158.968 925.549 152.724C921.141 146.297 915.264 139.869 907.918 133.441L884.779 113.332C876.515 106.353 869.72 98.4565 864.394 89.6414C859.252 80.8263 856.681 69.991 856.681 57.1357C856.681 38.7709 862.006 24.7218 872.658 14.9885C883.493 5.07148 898.277 0.112983 917.009 0.112983C928.212 0.112983 937.394 1.94947 944.556 5.62243C951.719 9.29539 957.228 14.2539 961.085 20.4979C965.125 26.5583 967.88 33.2614 969.349 40.6074C971.002 47.7696 972.012 54.9319 972.379 62.0942L933.537 67.8791C933.17 61.0841 932.527 55.1156 931.609 49.9734C930.874 44.8313 929.222 40.791 926.651 37.8526C924.263 34.9143 920.59 33.4451 915.632 33.4451C910.306 33.4451 906.357 35.4652 903.786 39.5055C901.215 43.3621 899.93 47.6778 899.93 52.4527C899.93 60.3495 901.674 66.869 905.164 72.0112C908.837 76.9697 913.795 82.2036 920.039 87.7131L942.628 107.547C951.994 115.628 959.983 124.902 966.594 135.37C973.389 145.654 976.786 158.418 976.786 173.66C976.786 184.128 974.399 193.586 969.624 202.034C964.849 210.482 958.146 217.093 949.515 221.868C941.067 226.643 931.058 229.03 919.488 229.03ZM984.192 226V2.8677L1081.43 2.8677V34.2715L1029.64 34.2715V93.498H1069.59V125.177H1029.64V195.147H1081.98V226H984.192Z" fill="white"/>
</svg>
